<?xml version="1.0" encoding="UTF-8" standalone="no"?>
<!-- Created with Inkscape (http://www.inkscape.org/) -->

<svg xmlns:osb="http://www.openswatchbook.org/uri/2009/osb" xmlns:dc="http://purl.org/dc/elements/1.1/" xmlns:cc="http://creativecommons.org/ns#" xmlns:rdf="http://www.w3.org/1999/02/22-rdf-syntax-ns#" xmlns:svg="http://www.w3.org/2000/svg" xmlns="http://www.w3.org/2000/svg" xmlns:xlink="http://www.w3.org/1999/xlink" xmlns:sodipodi="http://sodipodi.sourceforge.net/DTD/sodipodi-0.dtd" xmlns:inkscape="http://www.inkscape.org/namespaces/inkscape" width="512" height="512" id="svg12822" version="1.1" inkscape:version="0.92+devel unknown" sodipodi:docname="Network - Reverse Proxy Icon - 512px.svg" inkscape:export-filename="/home/djerk/Inkscape/Template - Icon - 512px.png" inkscape:export-xdpi="96" inkscape:export-ydpi="96">
  <defs id="defs12824">
    <linearGradient id="linearGradient5790" osb:paint="solid">
      <stop style="stop-color:black;stop-opacity:1;" offset="0" id="stop5788" />
    </linearGradient>
    <linearGradient id="linearGradient5784" osb:paint="solid">
      <stop style="stop-color:#ccc;stop-opacity:1;" offset="0" id="stop5782" />
    </linearGradient>
    <inkscape:path-effect hide_knots="false" only_selected="false" ignore_radius_0="false" use_knot_distance="false" flexible="false" helper_size="0" chamfer_steps="1" radius="12" method="auto" fillet_chamfer_values="-19.341413,1 | -8.0114731,1 | -19.341413,1 | -8.0114743,1 | -8.0114743,1 | -8.0114743,1 | -8.0114743,1" is_visible="true" id="path-effect4327" effect="fillet-chamfer" />
    <inkscape:path-effect effect="fillet-chamfer" id="path-effect4323" is_visible="true" fillet_chamfer_values="-19.386108,1 | -8.0299864,1 | -19.386108,1 | -8.0299876,1 | -8.0299876,1 | -8.0299876,1 | -8.0299876,1" method="auto" radius="12" chamfer_steps="1" helper_size="0" flexible="false" use_knot_distance="false" ignore_radius_0="false" only_selected="false" hide_knots="false" />
    <inkscape:path-effect hide_knots="false" only_selected="false" ignore_radius_0="false" use_knot_distance="false" flexible="false" helper_size="0" chamfer_steps="1" radius="12" method="auto" fillet_chamfer_values="-19.386108,1 | -8.0299864,1 | -19.386108,1 | -8.0299876,1 | -8.0299876,1 | -8.0299876,1 | -8.0299876,1" is_visible="true" id="path-effect4319" effect="fillet-chamfer" />
    <inkscape:path-effect effect="fillet-chamfer" id="path-effect4313" is_visible="true" fillet_chamfer_values="-19.386108,1 | -8.0299864,1 | -19.386108,1 | -8.0299876,1 | -8.0299876,1 | -8.0299876,1 | -8.0299876,1" method="auto" radius="12" chamfer_steps="1" helper_size="0" flexible="false" use_knot_distance="false" ignore_radius_0="false" only_selected="false" hide_knots="false" />
    <inkscape:path-effect effect="fillet-chamfer" id="path-effect4280" is_visible="true" fillet_chamfer_values="-45.870058,1 | -19,1 | -45.870058,1 | -19,1 | -19,1 | -19,1 | -19,1" method="auto" radius="19" chamfer_steps="1" helper_size="0" flexible="false" use_knot_distance="false" ignore_radius_0="false" only_selected="false" hide_knots="false" />
    <inkscape:path-effect effect="fillet-chamfer" id="path-effect4278" is_visible="true" fillet_chamfer_values="0,5019 | 0,5019 | 0,5019 | 0,5019 | 0,5019 | 0,5019 | 0,5019" method="auto" radius="0" chamfer_steps="19" helper_size="0" flexible="false" use_knot_distance="false" ignore_radius_0="false" only_selected="false" hide_knots="false" />
  </defs>
  <sodipodi:namedview id="base" pagecolor="#ffffff" bordercolor="#666666" borderopacity="1.0" inkscape:pageopacity="0.0" inkscape:pageshadow="2" inkscape:zoom="2.8027344" inkscape:cx="277.73097" inkscape:cy="214.25505" inkscape:document-units="px" inkscape:current-layer="layer3" showgrid="false" width="2048px" inkscape:window-width="2815" inkscape:window-height="1596" inkscape:window-x="65" inkscape:window-y="24" inkscape:window-maximized="1" fit-margin-top="-64" fit-margin-left="-22.5" fit-margin-right="-22.5" fit-margin-bottom="-22.5" showguides="true" inkscape:snap-global="true" inkscape:guide-bbox="true" inkscape:snap-bbox="true" inkscape:bbox-paths="true" inkscape:bbox-nodes="true" inkscape:snap-bbox-edge-midpoints="true" inkscape:lockguides="false">
    <inkscape:grid type="xygrid" id="grid13866" empspacing="5" visible="true" enabled="true" snapvisiblegridlinesonly="true" originx="-22.499999" originy="-22.500171" />
  </sodipodi:namedview>
  <metadata id="metadata12827">
    <rdf:RDF>
      <cc:Work rdf:about="">
        <dc:format>image/svg+xml</dc:format>
        <dc:type rdf:resource="http://purl.org/dc/dcmitype/StillImage" />
        <dc:title />
      </cc:Work>
    </rdf:RDF>
  </metadata>
  <g inkscape:label="Guides" inkscape:groupmode="layer" id="layer1" transform="translate(0,-540.3622)" style="display:inline">
    <rect style="opacity:0.5;fill:#d7d7d7;fill-opacity:1;fill-rule:nonzero;stroke:none" id="rect13789" width="512" height="2.5" x="0" y="537.86255" />
    <rect y="1052.3622" x="0" height="2.5" width="512" id="rect13793" style="opacity:0.5;fill:#d7d7d7;fill-opacity:1;fill-rule:nonzero;stroke:none" />
    <rect style="opacity:0.5;fill:#d7d7d7;fill-opacity:1;fill-rule:nonzero;stroke:none" id="rect13795" width="512" height="2.5" x="540.36218" y="0" transform="rotate(90)" />
    <rect transform="rotate(90)" y="-514.5" x="540.36218" height="2.5" width="512" id="rect13797" style="opacity:0.5;fill:#d7d7d7;fill-opacity:1;fill-rule:nonzero;stroke:none" />
    <rect style="opacity:0.5;fill:#606060;fill-opacity:1;fill-rule:nonzero;stroke:none" id="rect13799" width="22.5" height="2.5" x="512" y="537.86218" />
    <rect y="537.86218" x="-22.5" height="2.5" width="22.5" id="rect13801" style="opacity:0.5;fill:#606060;fill-opacity:1;fill-rule:nonzero;stroke:none" />
    <rect y="512" x="-540.36218" height="2.5" width="22.5" id="rect13803" style="opacity:0.5;fill:#606060;fill-opacity:1;fill-rule:nonzero;stroke:none" transform="rotate(-90)" />
    <rect transform="rotate(-90)" style="opacity:0.5;fill:#606060;fill-opacity:1;fill-rule:nonzero;stroke:none" id="rect13805" width="22.5" height="2.5" x="-540.36218" y="-2.5" />
    <rect y="-1054.8622" x="512" height="2.5" width="22.5" id="rect13807" style="opacity:0.5;fill:#606060;fill-opacity:1;fill-rule:nonzero;stroke:none" transform="scale(1,-1)" />
    <rect style="opacity:0.5;fill:#606060;fill-opacity:1;fill-rule:nonzero;stroke:none" id="rect13809" width="22.5" height="2.5" x="-22.5" y="-1054.8622" transform="scale(1,-1)" />
    <rect transform="matrix(0,1,1,0,0,0)" style="opacity:0.5;fill:#606060;fill-opacity:1;fill-rule:nonzero;stroke:none" id="rect13811" width="22.5" height="2.5" x="1052.3622" y="512" />
    <rect y="-2.5" x="1052.3622" height="2.5" width="22.5" id="rect13813" style="opacity:0.5;fill:#606060;fill-opacity:1;fill-rule:nonzero;stroke:none" transform="matrix(0,1,1,0,0,0)" />
    <flowRoot xml:space="preserve" id="flowRoot13825" style="font-style:normal;font-weight:normal;font-size:40px;line-height:125%;font-family:Sans;letter-spacing:0px;word-spacing:0px;fill:black;fill-opacity:1;stroke:none" transform="translate(0,-447.63782)"><flowRegion id="flowRegion13827"><rect id="rect13829" width="123.23861" height="41.416256" x="193.9493" y="921.18262" /></flowRegion><flowPara id="flowPara13831">5</flowPara></flowRoot>    <text xml:space="preserve" style="font-style:normal;font-variant:normal;font-weight:normal;font-stretch:normal;font-size:39.917099px;line-height:125%;font-family:Arial;-inkscape-font-specification:Arial;text-align:center;letter-spacing:0px;word-spacing:0px;writing-mode:lr-tb;text-anchor:middle;fill:#a6a6a6;fill-opacity:1;stroke:none" x="250.96188" y="513.2984" id="text13833" transform="scale(1.0173099,0.98298462)"><tspan sodipodi:role="line" id="tspan13835" x="250.96188" y="513.2984" style="fill:#a6a6a6;fill-opacity:1">512 px</tspan></text>
    <circle style="opacity:0.25;fill:none;fill-opacity:1;fill-rule:nonzero;stroke:#5e5e5e;stroke-width:10;stroke-linecap:round;stroke-linejoin:round;stroke-miterlimit:4;stroke-dasharray:none;stroke-dashoffset:0;stroke-opacity:1" id="path4315" cx="256" cy="796.36218" r="20" />
  </g>
  <g inkscape:groupmode="layer" id="layer2" inkscape:label="Hidden" style="display:none" transform="translate(0,-63.999985)" sodipodi:insensitive="true">
    <rect transform="translate(0,-476.3622)" style="display:inline;opacity:0.5;fill:none;stroke:black;stroke-width:0.99999994;stroke-linecap:round;stroke-linejoin:round;stroke-miterlimit:4;stroke-dasharray:none;stroke-opacity:1" id="rect13868-36" width="200" height="60" x="628" y="744.86218" ry="0" />
    <path transform="translate(0,-476.3622)" style="display:inline;fill:none;stroke:black;stroke-width:1px;stroke-linecap:butt;stroke-linejoin:miter;stroke-opacity:1" d="m 677.5,674.8622 -100,100 100,100 z" id="path13870-7" inkscape:connector-curvature="0" sodipodi:nodetypes="cccc" />
    <path transform="translate(0,-924.00009)" style="display:inline;opacity:1;fill:#f2f2f1;fill-opacity:1;stroke:#353638;stroke-width:15;stroke-linecap:round;stroke-linejoin:round;stroke-miterlimit:4;stroke-dasharray:none;stroke-opacity:1" d="m 541.78612,1404.9731 47.30621,47.7434 a 7.956464,7.956464 0 0 0 11.30376,0 l 47.30621,-47.7434 a 8.0822656,8.0822656 67.368248 0 0 -5.74125,-13.7709 h -19.20597 a 8.02999,8.02999 44.999992 0 1 -8.02999,-8.03 l -3e-5,-85.1035 a 8.02999,8.02999 44.999992 0 0 -8.02999,-8.03 h -23.9018 a 8.0299884,8.0299884 135 0 0 -8.02999,8.03 l -10e-6,85.1036 a 8.0299712,8.0299712 135.00006 0 1 -8.02999,8.03 l -19.20591,-10e-5 a 8.0822412,8.0822412 112.63181 0 0 -5.74125,13.7709 z" id="rect4308" inkscape:connector-curvature="0" inkscape:transform-center-x="-50.094047" inkscape:transform-center-y="101.31727" inkscape:original-d="m 528.14126,1391.2022 66.60295,67.2184 66.60295,-67.2184 h -46.62207 l -3e-5,-101.1635 h -39.96178 l -10e-6,101.1636 z" inkscape:path-effect="#path-effect4313" />
    <path transform="translate(0,-924.00009)" sodipodi:nodetypes="ccc" inkscape:connector-curvature="0" id="path5800" d="M 255.93388,1396.3741 C 150.69315,1336.778 95.830021,1226.2967 119.33239,1140.2659 c 50.94386,-13.3887 79.51683,-16.665 136.60149,-16.665" style="display:inline;fill:none;stroke:#f2f2f1;stroke-width:11.99999905;stroke-linecap:round;stroke-linejoin:round;stroke-miterlimit:4;stroke-dasharray:none;stroke-opacity:1" />
  </g>
  <g inkscape:groupmode="layer" id="layer3" inkscape:label="Icon" transform="translate(0,-988.00008)" style="display:inline">
    <circle style="display:inline;opacity:1;fill:#d9dad7;fill-opacity:1;fill-rule:nonzero;stroke:#353638;stroke-width:15;stroke-miterlimit:4;stroke-dasharray:none;stroke-opacity:1" id="path13864" cx="256.00009" cy="1244.0001" r="242.5" />
    <circle style="opacity:1;fill:none;fill-opacity:1;fill-rule:nonzero;stroke:#b0b2b1;stroke-width:24;stroke-linecap:round;stroke-linejoin:round;stroke-miterlimit:4;stroke-dasharray:none;stroke-dashoffset:0;stroke-opacity:1" id="path6522" cx="256" cy="1244.0001" r="223" />
    <path style="opacity:1;fill:none;fill-opacity:1;fill-rule:nonzero;stroke:#353638;stroke-width:8;stroke-linecap:round;stroke-linejoin:round;stroke-miterlimit:4;stroke-dasharray:none;stroke-dashoffset:0;stroke-opacity:1" id="path6526" r="207" cy="1244.0001" cx="256" d="" inkscape:connector-curvature="0" />
    <g id="g6565">
      <path transform="translate(0,924.00008)" id="path6557" d="m 190.17074,119.53182 a 211,211 0 0 1 60.1339,-10.4549" style="opacity:1;fill:none;fill-opacity:1;fill-rule:nonzero;stroke:#353638;stroke-width:8;stroke-linecap:round;stroke-linejoin:round;stroke-miterlimit:4;stroke-dasharray:none;stroke-dashoffset:0;stroke-opacity:1" inkscape:connector-curvature="0" />
      <path transform="translate(0,924.00008)" id="circle6528" d="M 45.997603,340.49378 A 211,211 0 0 1 45,320.00004 211,211 0 0 1 161.58663,131.30156" style="opacity:1;fill:none;fill-opacity:1;fill-rule:nonzero;stroke:#353638;stroke-width:8;stroke-linecap:round;stroke-linejoin:round;stroke-miterlimit:4;stroke-dasharray:none;stroke-dashoffset:0;stroke-opacity:1" inkscape:connector-curvature="0" />
    </g>
    <g style="stroke:#f2f2ff;stroke-width:0.99981272;stroke-opacity:0" transform="matrix(1.0003682,0,0,1.0000065,-0.03745677,15.991689)" id="use4336">
      <path style="fill:none;stroke:black;stroke-width:7.99850178;stroke-linecap:round;stroke-linejoin:round;stroke-miterlimit:4;stroke-dasharray:none" d="m 255.94331,1389.9718 c -112.59733,-63.7905 -171.295543,-182.0474 -146.1503,-274.133 54.50498,-14.331 85.07527,-17.8379 146.1503,-17.8379" id="path5843" inkscape:connector-curvature="0" sodipodi:nodetypes="ccc" />
      <use style="stroke-width:0.99981272" x="0" y="0" xlink:href="#rect4320" id="use5845" transform="matrix(-0.99963194,0,0,0.9999935,511.84918,-15.991585)" width="100%" height="100%" />
    </g>
    <g style="stroke-width:0.99981272;stroke:#f2f2f0;stroke-opacity:0" transform="matrix(1.0003682,0,0,1.0000065,-0.03745677,15.991689)" id="g5798">
      <path style="fill:none;stroke:#f2f2f0;stroke-width:7.99850178;stroke-linecap:round;stroke-linejoin:round;stroke-miterlimit:4;stroke-dasharray:none;stroke-opacity:0" d="m 255.94331,1389.9718 c -112.59733,-63.7905 -171.295543,-182.0474 -146.1503,-274.133 54.50498,-14.331 85.07527,-17.8379 146.1503,-17.8379" id="path5794" inkscape:connector-curvature="0" sodipodi:nodetypes="ccc" />
      <use style="stroke:#f2f2f0;stroke-width:0.99981272;stroke-opacity:0" x="0" y="0" xlink:href="#rect4320" id="use5796" transform="matrix(-0.99963194,0,0,0.9999935,511.84918,-15.991585)" width="100%" height="100%" />
    </g>
    <path style="fill:none;stroke:#f2f2f1;stroke-width:16;stroke-linecap:round;stroke-linejoin:round;stroke-miterlimit:4;stroke-dasharray:none;stroke-opacity:1" d="M 255.93533,1401.9432 C 365.14178,1339.907 422.07229,1224.902 397.6843,1135.3486 344.82075,1121.4117 315.17108,1118.0013 255.93533,1118.0013" id="path5816" inkscape:connector-curvature="0" sodipodi:nodetypes="ccc" />
    <g id="g5841" transform="translate(0.18125949,48.119268)">
      <path style="display:inline;opacity:1;fill:#f2f2f1;fill-opacity:1;stroke:#353638;stroke-width:15;stroke-linecap:round;stroke-linejoin:round;stroke-miterlimit:4;stroke-dasharray:none;stroke-opacity:1" d="m 288.44732,1191.2919 47.74918,47.0832 a 7.8997323,7.8997323 90 0 1 0,11.25 l -47.74918,47.0832 a 8.0911556,8.0911556 22.70119 0 1 -13.77215,-5.7613 l 1e-5,-19.0489 a 8.0114726,8.0114726 45.000006 0 0 -8.01147,-8.0115 h -85.1521 a 8.0114743,8.0114743 45 0 1 -8.01147,-8.0115 v -23.75 a 8.0114822,8.0114822 134.99997 0 1 8.01147,-8.0115 l 85.1521,-10e-5 a 8.0114805,8.0114805 134.99997 0 0 8.01147,-8.0115 l -1e-5,-19.0488 a 8.0911556,8.0911556 157.29881 0 1 13.77215,-5.7613 z" id="path4325" inkscape:path-effect="#path-effect4327" inkscape:original-d="m 274.67517,1177.7118 67.22594,66.2883 -67.22594,66.2883 1e-5,-46.4018 H 173.50014 v -39.773 l 101.17504,-10e-5 z" inkscape:connector-curvature="0" />
      <path style="display:inline;opacity:1;fill:#f2f2f1;fill-opacity:1;stroke:#353638;stroke-width:15;stroke-linecap:round;stroke-linejoin:round;stroke-miterlimit:4;stroke-dasharray:none;stroke-opacity:1" d="m 223.18854,1200.9805 -47.74328,-47.3061 a 7.9564664,7.9564664 90 0 1 0,-11.3038 l 47.74328,-47.3061 a 8.0822713,8.0822713 22.631729 0 1 13.77095,5.7412 l 1e-5,19.2058 a 8.0300007,8.0300007 45.00001 0 0 8.03,8.03 l 85.10361,10e-5 a 8.0299915,8.0299915 45.000043 0 1 8.02999,8.03 l -2e-5,23.9018 a 8.0299916,8.0299916 135.00001 0 1 -8.02999,8.03 h -85.1036 a 8.029991,8.029991 135.00001 0 0 -8.02999,8.03 l -1e-5,19.2059 a 8.0822689,8.0822689 157.36826 0 1 -13.77095,5.7412 z" id="path4317" inkscape:path-effect="#path-effect4319" inkscape:original-d="m 236.95948,1214.6254 -67.21833,-66.6029 67.21833,-66.6029 3e-5,46.6219 101.16359,10e-5 -2e-5,39.9618 H 236.9595 Z" inkscape:connector-curvature="0" />
    </g>
    <g id="g5855" transform="matrix(1.000005,0,0,0.99999501,-0.00134474,0.00633869)" style="stroke-width:1;stroke:#353638;stroke-opacity:1">
      <path sodipodi:nodetypes="ccc" inkscape:connector-curvature="0" id="rect4320" d="M 256.00009,1405.9725 C 143.3613,1342.1816 84.641478,1223.9239 109.79598,1131.8377 c 54.52505,-14.3311 85.10659,-17.838 146.20411,-17.838" style="fill:none;stroke:#353638;stroke-width:8;stroke-linecap:round;stroke-linejoin:round;stroke-miterlimit:4;stroke-dasharray:none;stroke-opacity:1" />
      <path style="fill:none;stroke:#353638;stroke-width:8;stroke-linecap:round;stroke-linejoin:round;stroke-miterlimit:4;stroke-dasharray:none;stroke-opacity:1" d="m 256.00009,1405.9725 c 112.63879,-63.7909 171.35862,-182.0486 146.20411,-274.1348 -54.52505,-14.3311 -85.10659,-17.838 -146.20411,-17.838" id="path5851" inkscape:connector-curvature="0" sodipodi:nodetypes="ccc" />
    </g>
  </g>
</svg>
